<?xml version="1.0" encoding="utf-8"?>
<!-- Generator: Adobe Illustrator 25.0.0, SVG Export Plug-In . SVG Version: 6.00 Build 0)  -->
<svg version="1.1" id="图层_1" xmlns="http://www.w3.org/2000/svg" xmlns:xlink="http://www.w3.org/1999/xlink" x="0px" y="0px"
	 viewBox="0 0 20 20" style="enable-background:new 0 0 20 20;" xml:space="preserve" height="20" width="20">
<style type="text/css">
	.st0{opacity:0.51;enable-background:new    ;}
</style>
<path class="st0" d="M10.7,2.2C6.4,2.2,3,5.6,3,9.9H0.4l3.3,3.3l0.1,0.1l3.4-3.4H4.7c0-3.3,2.7-6.1,6.1-6.1s6,2.8,6,6.1
	S14.1,16,10.7,16c-1.7,0-3.2-0.7-4.3-1.8l-1.1,1.2c1.4,1.4,3.3,2.3,5.5,2.3c4.3,0,7.7-3.4,7.7-7.7S15,2.2,10.7,2.2z M9.8,6.5v4.3
	l3.6,2.2l0.7-1l-3-1.8V6.5H9.8z"/>
</svg>
