<?xml version="1.0" encoding="utf-8"?>
<!-- Generator: Adobe Illustrator 26.2.1, SVG Export Plug-In . SVG Version: 6.00 Build 0)  -->
<svg version="1.1" id="图层_1" xmlns="http://www.w3.org/2000/svg" xmlns:xlink="http://www.w3.org/1999/xlink" x="0px" y="0px"
	 viewBox="0 0 20 20" style="enable-background:new 0 0 20 20;" xml:space="preserve" height="20" width="20">
<style type="text/css">
	.st0{opacity:0.51;enable-background:new    ;}
</style>
<path class="st0" d="M10.4,2.2c-4.3,0-7.7,3.4-7.7,7.7H0l3.3,3.3l0.1,0.1l3.4-3.4H4.4c0-3.3,2.7-6.1,6.1-6.1s6,2.9,6,6.2
	S13.8,16,10.4,16c-1.7,0-3.2-0.7-4.3-1.8L5,15.3c1.4,1.4,3.3,2.3,5.5,2.3c4.3,0,7.7-3.4,7.7-7.7S14.6,2.2,10.4,2.2z M9.4,6.5v4.3
	L13,13l0.7-1l-3-1.8V6.5H9.4z"/>
</svg>
