<?xml version="1.0" encoding="utf-8"?>
<!-- Generator: Adobe Illustrator 25.2.3, SVG Export Plug-In . SVG Version: 6.00 Build 0)  -->
<svg version="1.1" id="图层_1" xmlns="http://www.w3.org/2000/svg" xmlns:xlink="http://www.w3.org/1999/xlink" x="0px" y="0px"
	 viewBox="0 0 13 13" style="enable-background:new 0 0 13 13;" xml:space="preserve">
<style type="text/css">
	.st0{fill:none;}
	.st1{fill:#337AB7;}
</style>
<path class="st0" d="M0,0h13v13H0V0z"/>
<path class="st1" d="M2.1,6.5c0-0.9,0.8-1.7,1.7-1.7H6v-1H3.8C2.3,3.8,1.1,5,1.1,6.5s1.2,2.7,2.7,2.7H6v-1H3.8
	C2.9,8.2,2.1,7.4,2.1,6.5z M4.3,7h4.3V6H4.3V7z M9.2,3.8H7v1h2.2c0.9,0,1.7,0.8,1.7,1.7s-0.8,1.7-1.7,1.7H7v1h2.2
	c1.5,0,2.7-1.2,2.7-2.7S10.7,3.8,9.2,3.8z"/>
</svg>
