<?xml version="1.0" encoding="utf-8"?>
<!-- Generator: Adobe Illustrator 25.0.0, SVG Export Plug-In . SVG Version: 6.00 Build 0)  -->
<svg version="1.1" id="图层_1" xmlns="http://www.w3.org/2000/svg" xmlns:xlink="http://www.w3.org/1999/xlink" x="0px" y="0px"
	 viewBox="0 0 20 20" style="enable-background:new 0 0 20 20;" xml:space="preserve" height="20" width="20">
<style type="text/css">
	.st0{opacity:0.51;}
</style>
<path class="st0" d="M10,4.9C6.6,4.9,3.7,7,2.5,10c1.2,3,4.1,5.1,7.5,5.1s6.3-2.1,7.5-5.1C16.3,7,13.4,4.9,10,4.9z M10,13.4
	c-1.9,0-3.4-1.5-3.4-3.4S8.1,6.6,10,6.6s3.4,1.5,3.4,3.4S11.9,13.4,10,13.4z M10,8c-1.1,0-2,0.9-2,2s0.9,2,2,2s2-0.9,2-2
	S11.1,8,10,8z"/>
</svg>
