<?xml version="1.0" encoding="utf-8"?>
<!-- Generator: Adobe Illustrator 24.3.0, SVG Export Plug-In . SVG Version: 6.00 Build 0)  -->
<svg version="1.0" id="图层_1" xmlns="http://www.w3.org/2000/svg" width="20" height="20" xmlns:xlink="http://www.w3.org/1999/xlink" x="0px" y="0px"
	 viewBox="0 0 20 20" style="enable-background:new 0 0 20 20;" xml:space="preserve">
<style type="text/css">
	.st0{opacity:0.51;}
</style>
<path class="st0" d="M15.9,10.5C16,10.2,16,10,16,9.7s0-0.5-0.1-0.8l1.7-1.3c0.1-0.1,0.2-0.3,0.1-0.5l-1.6-2.8
	c-0.1-0.2-0.3-0.2-0.5-0.2l-2,0.8c-0.4-0.3-0.9-0.6-1.4-0.8L12,2.1c0-0.2-0.2-0.3-0.4-0.3H8.4C8.2,1.7,8,1.9,8,2.1L7.7,4.2
	C7.2,4.4,6.8,4.6,6.4,5l-2-0.8C4.2,4.1,4,4.2,3.9,4.3L2.3,7.1C2.2,7.3,2.2,7.5,2.4,7.6l1.7,1.3C4,9.2,4,9.5,4,9.7s0,0.5,0.1,0.8
	l-1.7,1.3c-0.2,0.1-0.2,0.3-0.1,0.5l1.6,2.8c0.1,0.2,0.3,0.2,0.5,0.2l2-0.8c0.4,0.3,0.9,0.6,1.3,0.8L8,17.4c0,0.2,0.2,0.3,0.4,0.3
	h3.2c0.2,0,0.4-0.1,0.4-0.3l0.3-2.1c0.5-0.2,0.9-0.5,1.4-0.8l2,0.8c0.2,0.1,0.4,0,0.5-0.2l1.6-2.8c0.1-0.2,0.1-0.4-0.1-0.5
	C17.6,11.8,16,10.5,15.9,10.5z M10,12.7c-1.6,0-3-1.4-3-3s1.4-3,3-3s3,1.4,3,3S11.6,12.7,10,12.7z"/>
</svg>
