<?xml version="1.0" encoding="utf-8"?>
<!-- Generator: Adobe Illustrator 24.3.0, SVG Export Plug-In . SVG Version: 6.00 Build 0)  -->
<svg version="1.0" id="图层_1" xmlns="http://www.w3.org/2000/svg" width="30" height="30" xmlns:xlink="http://www.w3.org/1999/xlink" x="0px" y="0px"
	 viewBox="0 0 30 30" style="enable-background:new 0 0 30 30;" xml:space="preserve">
<style type="text/css">
	.st0{opacity:0.51;}
</style>
<path class="st0" d="M24.4,16.2c0-0.4,0.1-0.8,0.1-1.2s0-0.8-0.1-1.2l2.7-2.1c0.2-0.2,0.3-0.5,0.2-0.8l-2.5-4.4
	c-0.2-0.3-0.5-0.4-0.8-0.3l-3.2,1.3c-0.7-0.5-1.4-0.9-2.1-1.2l-0.5-3.4c0-0.3-0.3-0.5-0.6-0.5h-5.1c-0.3,0-0.6,0.2-0.6,0.5l-0.5,3.4
	C10.6,6.5,9.9,7,9.2,7.5L6.1,6.2c-0.3-0.1-0.6,0-0.8,0.3l-2.5,4.4c-0.2,0.3-0.1,0.6,0.2,0.8l2.7,2.1c-0.1,0.4-0.1,0.8-0.1,1.2
	c0,0.4,0,0.8,0.1,1.2l-2.7,2.1c-0.2,0.2-0.3,0.5-0.2,0.8l2.5,4.4c0.2,0.3,0.5,0.4,0.8,0.3l3.2-1.3c0.7,0.5,1.4,0.9,2.1,1.2l0.5,3.4
	c0.1,0.3,0.3,0.5,0.6,0.5h5.1c0.3,0,0.6-0.2,0.6-0.5l0.5-3.4c0.8-0.3,1.5-0.7,2.1-1.2l3.2,1.3c0.3,0.1,0.6,0,0.8-0.3l2.5-4.4
	c0.2-0.3,0.1-0.6-0.2-0.8C27.1,18.3,24.4,16.2,24.4,16.2z M15,19.8c-2.6,0-4.8-2.1-4.8-4.8s2.1-4.8,4.8-4.8s4.8,2.1,4.8,4.8
	S17.6,19.8,15,19.8z"/>
</svg>
