<?xml version="1.0" encoding="utf-8"?>
<!-- Generator: Adobe Illustrator 26.0.3, SVG Export Plug-In . SVG Version: 6.00 Build 0)  -->
<svg version="1.1" id="图层_1" xmlns="http://www.w3.org/2000/svg" xmlns:xlink="http://www.w3.org/1999/xlink" x="0px" y="0px"
	 viewBox="0 0 30 30" style="enable-background:new 0 0 30 30;" xml:space="preserve">
<style type="text/css">
	.st0{opacity:0.51;}
	.st1{fill:none;}
</style>
<g class="st0">
	<path class="st1" d="M2,2h26v26H2V2z"/>
	<path d="M22.7,16c0-0.3,0.1-0.7,0.1-1c0-0.3,0-0.7-0.1-1l2.2-1.7c0.2-0.2,0.2-0.4,0.1-0.7L23,8c-0.1-0.2-0.4-0.3-0.6-0.2l-2.6,1
		c-0.5-0.4-1.1-0.8-1.8-1L17.6,5c0-0.3-0.3-0.4-0.5-0.4h-4.2c-0.3,0-0.5,0.2-0.5,0.4L12,7.8c-0.6,0.3-1.2,0.6-1.8,1l-2.6-1
		C7.4,7.7,7.2,7.8,7,8L5,11.6c-0.1,0.2-0.1,0.5,0.1,0.7L7.3,14c-0.1,0.3-0.1,0.7-0.1,1s0,0.7,0.1,1l-2.2,1.7
		c-0.2,0.2-0.2,0.4-0.1,0.7L7,22c0.1,0.2,0.4,0.3,0.6,0.2l2.6-1c0.5,0.4,1.1,0.8,1.8,1l0.4,2.8c0.1,0.3,0.3,0.4,0.5,0.4h4.2
		c0.3,0,0.5-0.2,0.5-0.4l0.4-2.8c0.6-0.3,1.2-0.6,1.8-1l2.6,1c0.2,0.1,0.5,0,0.6-0.2l2.1-3.6c0.1-0.2,0.1-0.5-0.1-0.7L22.7,16z
		 M15,18.9c-2.1,0-3.9-1.8-3.9-3.9s1.8-3.9,3.9-3.9s3.9,1.8,3.9,3.9S17.1,18.9,15,18.9z"/>
</g>
</svg>
