<?xml version="1.0" encoding="utf-8"?>
<!-- Generator: Adobe Illustrator 26.2.1, SVG Export Plug-In . SVG Version: 6.00 Build 0)  -->
<svg version="1.1" id="图层_1" xmlns="http://www.w3.org/2000/svg" xmlns:xlink="http://www.w3.org/1999/xlink" x="0px" y="0px"
	 viewBox="0 0 20 20" style="enable-background:new 0 0 20 20;" xml:space="preserve" height="20" width="20">
<style type="text/css">
	.st0{opacity:0.51;enable-background:new    ;}
</style>
<path class="st0" d="M16,10.8c0.1-0.3,0.1-0.5,0.1-0.8c0-0.3,0-0.5-0.1-0.8l1.7-1.3c0.1-0.1,0.2-0.3,0.1-0.5l-1.6-2.9
	c-0.1-0.2-0.3-0.2-0.5-0.2l-2,0.8c-0.4-0.3-0.9-0.6-1.4-0.8l-0.2-2c0-0.2-0.2-0.3-0.4-0.3H8.4C8.2,1.8,8,2,8,2.2L7.6,4.3
	C7.1,4.5,6.7,4.7,6.3,5.2l-2-0.8c-0.2-0.1-0.4,0-0.5,0.1L2.1,7.3C2,7.5,2,7.7,2.2,7.8L4,9.1C3.9,9.5,3.9,9.8,3.9,10
	c0,0.2,0,0.5,0.1,0.8l-1.7,1.3C2,12.2,2,12.4,2.1,12.6l1.6,2.9c0.1,0.2,0.3,0.2,0.5,0.2l2-0.8c0.4,0.3,0.9,0.6,1.3,0.8L8,17.8
	c0,0.2,0.2,0.3,0.4,0.3h3.3c0.2,0,0.4-0.1,0.4-0.3l0.3-2.1c0.5-0.2,0.9-0.5,1.4-0.8l2,0.8c0.2,0.1,0.4,0,0.5-0.2l1.6-2.9
	c0.1-0.2,0.1-0.4-0.1-0.5C17.8,12.1,16.1,10.8,16,10.8z M10,13c-1.6,0-3.1-1.4-3.1-3.1S8.4,6.9,10,6.9s3.1,1.4,3.1,3.1
	S11.6,13,10,13z"/>
</svg>
