<?xml version="1.0" encoding="utf-8"?>
<!-- Generator: Adobe Illustrator 25.0.0, SVG Export Plug-In . SVG Version: 6.00 Build 0)  -->
<svg version="1.1" id="图层_1" xmlns="http://www.w3.org/2000/svg" xmlns:xlink="http://www.w3.org/1999/xlink" x="0px" y="0px"
	 viewBox="0 0 20 20" style="enable-background:new 0 0 20 20;" xml:space="preserve" height="20" width="20">
<style type="text/css">
	.st0{opacity:0.51;}
</style>
<path class="st0" d="M10.7,12.5l-2.1-2l0,0c1.4-1.6,2.4-3.4,3-5.3H14V3.5H8.4V1.9H6.8v1.6H1.1v1.6h9c-0.5,1.6-1.4,3-2.6,4.3
	C6.8,8.6,6.2,7.7,5.7,6.8H4.1c0.6,1.3,1.4,2.6,2.4,3.7l-4.1,4.1l1.1,1.1l4-4l2.5,2.5C10.1,14.1,10.7,12.5,10.7,12.5z M15.3,8.4h-1.6
	L10,18.1h1.6l0.9-2.4h3.8l0.9,2.4h1.6L15.3,8.4z M13.1,14l1.3-3.5l1.3,3.5H13.1z"/>
</svg>
