<?xml version="1.0" encoding="utf-8"?>
<!-- Generator: Adobe Illustrator 26.2.1, SVG Export Plug-In . SVG Version: 6.00 Build 0)  -->
<svg version="1.1" id="图层_1" xmlns="http://www.w3.org/2000/svg" xmlns:xlink="http://www.w3.org/1999/xlink" x="0px" y="0px"
	 viewBox="0 0 20 20" style="enable-background:new 0 0 20 20;" xml:space="preserve" height="20" width="20">
<style type="text/css">
	.st0{opacity:0.51;enable-background:new    ;}
</style>
<path class="st0" d="M10.7,12.4l-2-1.9l0,0C10,9,11,7.3,11.5,5.5h2.3V3.8H8.5V2.3H7v1.5H1.5v1.5h8.6C9.6,6.9,8.7,8.2,7.6,9.5
	C7,8.7,6.3,7.8,5.9,7H4.4c0.5,1.2,1.3,2.5,2.3,3.6l-3.9,3.9l1,1l3.8-3.8L10,14C10.1,13.9,10.7,12.4,10.7,12.4z M15.1,8.5h-1.5
	L10,17.7h1.5l0.9-2.3H16l0.9,2.3h1.5L15.1,8.5z M12.9,13.8l1.2-3.4l1.2,3.4H12.9z"/>
</svg>
