<?xml version="1.0" encoding="utf-8"?>
<!-- Generator: Adobe Illustrator 26.0.3, SVG Export Plug-In . SVG Version: 6.00 Build 0)  -->
<svg version="1.1" id="图层_1" xmlns="http://www.w3.org/2000/svg" xmlns:xlink="http://www.w3.org/1999/xlink" x="0px" y="0px"
	 viewBox="0 0 20 20" style="enable-background:new 0 0 20 20;" xml:space="preserve">
<style type="text/css">
	.st0{opacity:0.51;}
</style>
<g class="st0">
	<path d="M11.5,2H5.2v0.1c-0.9,0-1.6,0.7-1.6,1.6v12.7c0,0.9,0.7,1.6,1.6,1.6h9.5c0.9,0,1.6-0.7,1.6-1.6V6.8L11.5,2z M12.4,13
		c0,0.1,0,0.2,0,0.3l0.6,0.5c0.1,0,0.1,0.1,0,0.2l-0.6,1c0,0.1-0.1,0.1-0.2,0.1l-0.7-0.3c-0.2,0.1-0.3,0.2-0.5,0.3l-0.1,0.8
		c0,0.1-0.1,0.1-0.1,0.1H9.6c-0.1,0-0.1-0.1-0.1-0.1l-0.1-0.8c-0.2-0.1-0.4-0.2-0.5-0.3L8,15.1c-0.1,0-0.1,0-0.2-0.1l-0.6-1
		c0-0.1,0-0.1,0-0.2l0.6-0.5c0-0.1,0-0.2,0-0.3s0-0.2,0-0.3l-0.6-0.5c-0.1,0-0.1-0.1,0-0.2l0.6-1c0-0.1,0.1-0.1,0.2-0.1l0.7,0.3
		c0.2-0.1,0.3-0.2,0.5-0.3l0.1-0.8c0-0.1,0.1-0.1,0.1-0.1h1.2c0.1,0,0.1,0.1,0.2,0.1l0.1,0.8c0.2,0.1,0.4,0.2,0.5,0.3l0.7-0.3
		c0.1,0,0.1,0,0.2,0.1l0.6,1c0,0.1,0,0.1,0,0.2l-0.6,0.5C12.4,12.8,12.4,12.9,12.4,13z M10.8,7.7V7.6V3.3l4.4,4.4H10.8z"/>
	<circle cx="10.2" cy="13" r="1"/>
</g>
</svg>
