<?xml version="1.0" encoding="utf-8"?>
<!-- Generator: Adobe Illustrator 25.0.0, SVG Export Plug-In . SVG Version: 6.00 Build 0)  -->
<svg version="1.1" id="图层_1" xmlns="http://www.w3.org/2000/svg" xmlns:xlink="http://www.w3.org/1999/xlink" x="0px" y="0px"
	 viewBox="0 0 20 20" style="enable-background:new 0 0 20 20;" xml:space="preserve" height="20" width="20">
<style type="text/css">
	.st0{opacity:0.51;enable-background:new    ;}
</style>
<path class="st0" d="M4,2v16h4v-2H6V4h4v4h4v1h2V7l-5-5H4z"/>
<path class="st0" d="M16.1,14.5c0-0.1,0-0.2,0-0.4s0-0.2,0-0.4l0.8-0.6c0,0,0.1-0.1,0-0.2l-0.8-1.4c0-0.1-0.1-0.1-0.2-0.1l-1,0.4
	c-0.2-0.1-0.4-0.3-0.7-0.4l-0.1-1c0-0.1-0.1-0.1-0.2-0.1h-1.6c-0.1,0-0.2,0-0.2,0.1l-0.1,1c-0.2,0.1-0.4,0.2-0.6,0.4l-1-0.4
	c-0.1,0-0.2,0-0.2,0l-0.8,1.4c0,0.1,0,0.2,0,0.2l0.8,0.6c0,0.1,0,0.3,0,0.4s0,0.2,0,0.4l-0.8,0.6c-0.1,0-0.1,0.1,0,0.2l0.8,1.4
	c0,0.1,0.1,0.1,0.2,0.1l1-0.4c0.2,0.1,0.4,0.3,0.6,0.4l0.1,1c0,0.1,0.1,0.1,0.2,0.1H14c0.1,0,0.2,0,0.2-0.1l0.1-1
	c0.2-0.1,0.4-0.2,0.7-0.4l1,0.4c0.1,0,0.2,0,0.2-0.1l0.8-1.4c0-0.1,0-0.2,0-0.2C16.9,15.2,16.1,14.5,16.1,14.5z M13.2,15.6
	c-0.8,0-1.5-0.7-1.5-1.5c0-0.8,0.7-1.5,1.5-1.5c0.8,0,1.5,0.7,1.5,1.5C14.7,14.9,14,15.6,13.2,15.6z"/>
</svg>
