<?xml version="1.0" encoding="utf-8"?>
<!-- Generator: Adobe Illustrator 25.0.0, SVG Export Plug-In . SVG Version: 6.00 Build 0)  -->
<svg version="1.1" id="图层_1" xmlns="http://www.w3.org/2000/svg" xmlns:xlink="http://www.w3.org/1999/xlink" x="0px" y="0px"
	 viewBox="0 0 20 20" style="enable-background:new 0 0 20 20;" xml:space="preserve" height="20" width="20">
<style type="text/css">
	.st0{opacity:0.51;enable-background:new    ;}
</style>
<path class="st0" d="M12.3,16.8l-1.7-1.7l1.7-1.7l-0.5-0.5L9.7,15l2.1,2.1L12.3,16.8z M14.1,16.8l1.7-1.7l-1.7-1.7l0.5-0.5l2.1,2.1
	l-2.1,2.1C14.6,17.3,14.1,16.8,14.1,16.8z"/>
<path class="st0" d="M3,14v3h3l8.5-8.7l-2.9-2.9L3,14z M16.8,6.1C17,5.8,17,5.3,16.8,5L15,3.2c-0.3-0.3-0.8-0.3-1.1,0l-1.4,1.3l3,3
	L16.8,6.1z"/>
</svg>
