<?xml version="1.0" encoding="utf-8"?>
<!-- Generator: Adobe Illustrator 26.2.1, SVG Export Plug-In . SVG Version: 6.00 Build 0)  -->
<svg version="1.1" id="图层_1" xmlns="http://www.w3.org/2000/svg" xmlns:xlink="http://www.w3.org/1999/xlink" x="0px" y="0px"
	 viewBox="0 0 20 20" style="enable-background:new 0 0 20 20;" xml:space="preserve" height="20" width="20">
<style type="text/css">
	.st0{opacity:0.51;enable-background:new    ;}
</style>
<path class="st0" d="M12.5,17.3l-1.8-1.8l1.8-1.8l-0.5-0.5l-2.3,2.3l2.3,2.3L12.5,17.3z M14.4,17.3l1.8-1.8l-1.8-1.8l0.5-0.5
	l2.3,2.3l-2.3,2.3C14.9,17.8,14.4,17.3,14.4,17.3z"/>
<path class="st0" d="M2.5,14.3v3.2h3.2l9.1-9.4L11.7,5L2.5,14.3z M17.3,5.8c0.2-0.3,0.2-0.9,0-1.2l-1.9-1.9c-0.3-0.3-0.9-0.3-1.2,0
	l-1.5,1.4l3.2,3.2L17.3,5.8z"/>
</svg>
