<?xml version="1.0" encoding="utf-8"?>
<!-- Generator: Adobe Illustrator 25.0.0, SVG Export Plug-In . SVG Version: 6.00 Build 0)  -->
<svg version="1.1" id="图层_1" xmlns="http://www.w3.org/2000/svg" xmlns:xlink="http://www.w3.org/1999/xlink" x="0px" y="0px"
	 viewBox="0 0 20 20" style="enable-background:new 0 0 20 20;" xml:space="preserve" height="20" width="20">
<style type="text/css">
	.st0{opacity:0.51;}
</style>
<path class="st0" d="M16,9h-1V6.3c0-0.8-0.6-1.4-1.4-1.4h-2.8v-1c0-1-0.8-1.7-1.7-1.7S7.4,2.9,7.4,3.8v1H4.6c-0.8,0-1.4,0.6-1.4,1.4
	v2.6h1c1,0,1.9,0.8,1.9,1.9s-0.8,1.9-1.9,1.9h-1v2.6c0,0.8,0.6,1.4,1.4,1.4h2.6v-1c0-1,0.8-1.9,1.9-1.9s1.9,0.8,1.9,1.9v1h2.6
	c0.8,0,1.4-0.6,1.4-1.4v-2.8h1c1,0,1.7-0.8,1.7-1.7S17,9,16,9z"/>
</svg>
