<?xml version="1.0" encoding="utf-8"?>
<!-- Generator: Adobe Illustrator 26.2.1, SVG Export Plug-In . SVG Version: 6.00 Build 0)  -->
<svg version="1.1" id="图层_1" xmlns="http://www.w3.org/2000/svg" xmlns:xlink="http://www.w3.org/1999/xlink" x="0px" y="0px"
	 viewBox="0 0 20 20" style="enable-background:new 0 0 20 20;" xml:space="preserve" height="20" width="20">
<style type="text/css">
	.st0{opacity:0.51;enable-background:new    ;}
</style>
<path class="st0" d="M16.6,9h-1.1V6c0-0.9-0.6-1.5-1.5-1.5h-3.1V3.3c0-1.1-0.9-1.9-1.9-1.9C8,1.5,7.1,2.3,7.1,3.2v1.1H4
	C3.1,4.3,2.4,5,2.4,5.9v2.9h1.1c1.1,0,2.1,0.9,2.1,2.1s-0.9,2.1-2.1,2.1H2.4v2.9c0,0.9,0.6,1.5,1.5,1.5h2.9v-1.1
	c0-1.1,0.9-2.1,2.1-2.1s2.1,0.9,2.1,2.1v1.1h2.9c0.9,0,1.5-0.6,1.5-1.5v-3.1h1.1c1.1,0,1.9-0.9,1.9-1.9C18.4,9.9,17.7,9,16.6,9z"/>
</svg>
