<?xml version="1.0" encoding="utf-8"?>
<!-- Generator: Adobe Illustrator 26.0.3, SVG Export Plug-In . SVG Version: 6.00 Build 0)  -->
<svg version="1.1" id="图层_1" xmlns="http://www.w3.org/2000/svg" xmlns:xlink="http://www.w3.org/1999/xlink" x="0px" y="0px"
	 viewBox="0 0 21 21" style="enable-background:new 0 0 21 21;" xml:space="preserve">
<style type="text/css">
	.st0{opacity:0.33;}
</style>
<path class="st0" d="M14.4,12.8h-0.8l-0.3-0.3c1-1.2,1.6-2.7,1.6-4.3c0-3.7-3-6.7-6.7-6.7s-6.7,3-6.7,6.7s3,6.7,6.7,6.7
	c1.7,0,3.2-0.6,4.3-1.6l0.3,0.3v0.8l5.1,5.1l1.5-1.5L14.4,12.8z M8.2,12.8c-2.6,0-4.6-2.1-4.6-4.6s2.1-4.6,4.6-4.6s4.6,2.1,4.6,4.6
	S10.7,12.8,8.2,12.8z"/>
</svg>
