<?xml version="1.0" encoding="utf-8"?>
<!-- Generator: Adobe Illustrator 26.0.3, SVG Export Plug-In . SVG Version: 6.00 Build 0)  -->
<svg version="1.1" id="图层_1" xmlns="http://www.w3.org/2000/svg" xmlns:xlink="http://www.w3.org/1999/xlink" x="0px" y="0px"
	 viewBox="0 0 21 21" style="enable-background:new 0 0 21 21;" xml:space="preserve">
<style type="text/css">
	.st0{opacity:0.33;}
</style>
<path class="st0" d="M6.6,12.8h0.8l0.3-0.3c-1-1.2-1.6-2.7-1.6-4.3c0-3.7,3-6.7,6.7-6.7s6.7,3,6.7,6.7s-3,6.7-6.7,6.7
	c-1.7,0-3.2-0.6-4.3-1.6l-0.3,0.3v0.8L3,19.5L1.5,18L6.6,12.8z M12.8,12.8c2.6,0,4.6-2.1,4.6-4.6s-2.1-4.6-4.6-4.6S8.2,5.6,8.2,8.2
	S10.3,12.8,12.8,12.8z"/>
</svg>
