<?xml version="1.0" encoding="utf-8"?>
<!-- Generator: Adobe Illustrator 26.2.1, SVG Export Plug-In . SVG Version: 6.00 Build 0)  -->
<svg version="1.1" id="图层_1" xmlns="http://www.w3.org/2000/svg" xmlns:xlink="http://www.w3.org/1999/xlink" x="0px" y="0px"
	 height="24px" viewBox="0 0 24 24" width="24px" style="enable-background:new 0 0 24 24;" xml:space="preserve">
<style type="text/css">
	.st0{fill:none;}
</style>
<path class="st0" d="M0,0h24v24H0V0z"/>
<g>
	<circle cx="11.999" cy="10" r="1.75"/>
	<path d="M21.99,4c0-1.1-0.89-2-1.99-2H4C2.9,2,2,2.9,2,4v12c0,1.1,0.9,2,2,2h14l4,4L21.99,4z M15.749,10
		c0,0.165-0.015,0.328-0.035,0.487l1.055,0.828c0.095,0.078,0.122,0.213,0.06,0.32l-1,1.732c-0.062,0.107-0.193,0.15-0.305,0.107
		l-1.245-0.503c-0.258,0.2-0.54,0.365-0.845,0.493l-0.188,1.325c-0.02,0.117-0.122,0.21-0.247,0.21h-2
		c-0.125,0-0.228-0.093-0.248-0.21l-0.188-1.325c-0.305-0.128-0.587-0.295-0.845-0.493l-1.245,0.503
		c-0.112,0.045-0.242,0-0.305-0.107l-1-1.732c-0.062-0.11-0.035-0.245,0.06-0.32l1.055-0.828c-0.02-0.16-0.035-0.323-0.035-0.487
		s0.015-0.328,0.035-0.487L7.229,8.685c-0.095-0.078-0.122-0.213-0.06-0.32l1-1.732c0.062-0.107,0.193-0.15,0.305-0.107l1.245,0.503
		c0.258-0.2,0.54-0.365,0.845-0.493l0.188-1.325C10.771,5.093,10.874,5,10.999,5h2c0.125,0,0.227,0.093,0.25,0.21l0.188,1.325
		c0.305,0.128,0.587,0.295,0.845,0.493l1.245-0.503c0.112-0.045,0.242,0,0.305,0.107l1,1.732c0.062,0.11,0.035,0.245-0.06,0.32
		l-1.057,0.828C15.734,9.672,15.749,9.835,15.749,10z"/>
</g>
</svg>
