<?xml version="1.0" encoding="utf-8"?>
<!-- Generator: Adobe Illustrator 26.2.1, SVG Export Plug-In . SVG Version: 6.00 Build 0)  -->
<svg version="1.1" id="图层_1" xmlns="http://www.w3.org/2000/svg" xmlns:xlink="http://www.w3.org/1999/xlink" x="0px" y="0px"
	 height="24px" viewBox="0 0 24 24" width="24px"  style="enable-background:new 0 0 24 24;" xml:space="preserve">
<style type="text/css">
	.st0{fill:none;}
</style>
<rect class="st0" width="24" height="24"/>
<path d="M16.162,8.059l1.13-1.13c0.621-0.621,1.624-0.621,2.244,0l1.13,1.13c0.621,0.621,0.621,1.624,0,2.244l-1.13,1.13
	L16.162,8.059z M15.032,9.189l-8.436,8.436V21H9.97l8.436-8.436L15.032,9.189z"/>
<path class="st0" d="M0,0h24v24H0V0z"/>
<path class="st0" d="M6.199-0.837H22.98v16.781H6.199V-0.837z"/>
<polygon points="8.564,10.77 5.348,7.554 8.564,4.337 7.585,3.358 3.39,7.554 7.585,11.749 "/>
<rect x="13.326" y="3.297" transform="matrix(0.7071 -0.7071 0.7071 0.7071 0.4453 11.4289)" width="1.384" height="3.759"/>
</svg>
