<?xml version="1.0" encoding="utf-8"?>
<!-- Generator: Adobe Illustrator 26.2.1, SVG Export Plug-In . SVG Version: 6.00 Build 0)  -->
<svg version="1.1" id="图层_1" xmlns="http://www.w3.org/2000/svg" xmlns:xlink="http://www.w3.org/1999/xlink" x="0px" y="0px"
	 height="24px" viewBox="0 0 24 24" width="24px" style="enable-background:new 0 0 24 24;" xml:space="preserve">
<style type="text/css">
	.st0{fill:none;}
</style>
<path class="st0" d="M0,0h24v24H0V0z"/>
<g>
	<path d="M14,2H6C4.9,2,4.01,2.9,4.01,4L4,20c0,1.1,0.89,2,1.99,2H18c1.1,0,2-0.9,2-2V8L14,2z M15.224,14.581
		c0,0.148-0.009,0.287-0.027,0.421l0.9,0.707c0.085,0.063,0.107,0.175,0.054,0.273l-0.86,1.487
		c-0.054,0.099-0.166,0.134-0.264,0.099l-1.07-0.43c-0.219,0.17-0.461,0.313-0.725,0.421l-0.161,1.137
		c-0.013,0.107-0.103,0.184-0.21,0.184H11.14c-0.107,0-0.193-0.076-0.215-0.184l-0.161-1.137c-0.264-0.107-0.501-0.251-0.725-0.421
		l-1.07,0.43c-0.099,0.031-0.21,0-0.264-0.099l-0.86-1.487c-0.049-0.09-0.027-0.21,0.054-0.273l0.909-0.707
		c-0.022-0.134-0.031-0.282-0.031-0.421c0-0.139,0.018-0.287,0.04-0.421l-0.909-0.707c-0.09-0.063-0.107-0.179-0.054-0.273
		l0.855-1.487c0.054-0.099,0.166-0.134,0.264-0.099l1.07,0.43c0.219-0.166,0.461-0.313,0.725-0.421l0.161-1.137
		c0.018-0.107,0.103-0.184,0.21-0.184h1.719c0.107,0,0.197,0.076,0.215,0.184l0.161,1.137c0.264,0.107,0.501,0.251,0.725,0.421
		l1.07-0.43c0.099-0.031,0.21,0,0.264,0.099l0.86,1.487c0.049,0.09,0.027,0.21-0.054,0.273l-0.909,0.707
		C15.215,14.294,15.224,14.437,15.224,14.581z"/>
	<circle cx="12" cy="14.581" r="1.612"/>
</g>
</svg>
