<?xml version="1.0" encoding="utf-8"?>
<!-- Generator: Adobe Illustrator 26.1.0, SVG Export Plug-In . SVG Version: 6.00 Build 0)  -->
<svg version="1.1" id="图层_1" xmlns="http://www.w3.org/2000/svg" xmlns:xlink="http://www.w3.org/1999/xlink" x="0px" y="0px"
	 viewBox="0 0 28 28" style="enable-background:new 0 0 28 28;" xml:space="preserve">
<style type="text/css">
	.st0{fill:none;}
</style>
<g>
	<path class="st0" d="M-2-2h32v32H-2V-2z"/>
	<path d="M23.5,15.3c0-0.3,0.1-0.9,0.1-1.3s0-0.9-0.1-1.3l2.7-2.1c0.2-0.2,0.2-0.5,0.1-0.9l-2.5-4.5c-0.1-0.2-0.5-0.3-0.7-0.2
		l-3.2,1.3c-0.6-0.5-1.4-1-2.2-1.3l-0.5-3.4c0-0.3-0.3-0.5-0.6-0.5h-5.1c-0.3,0-0.6,0.2-0.6,0.5l-0.5,3.4C9.9,5.4,9.1,5.8,8.4,6.3
		L4.9,5.1C4.6,5,4.4,5.1,4.2,5.3L1.7,9.8c-0.1,0.2-0.1,0.6,0.1,0.9l2.7,2.1c-0.1,0.3-0.1,0.9-0.1,1.3s0,0.9,0.1,1.3l-2.7,2.1
		c-0.2,0.2-0.2,0.5-0.1,0.9l2.5,4.5c0.1,0.2,0.5,0.3,0.7,0.2l3.2-1.3c0.6,0.5,1.4,1,2.2,1.3l0.5,3.4c0.1,0.3,0.3,0.5,0.6,0.5h5.1
		c0.3,0,0.6-0.2,0.6-0.5l0.5-3.4c0.7-0.3,1.5-0.7,2.2-1.3l3.2,1.3c0.2,0.1,0.6,0,0.7-0.2l2.6-4.5c0.1-0.2,0.1-0.6-0.1-0.9L23.5,15.3
		z M14,18.8c-2.6,0-4.8-2.2-4.8-4.8s2.2-4.8,4.8-4.8s4.8,2.2,4.8,4.8S16.6,18.8,14,18.8z"/>
</g>
</svg>
